<svg width="1280" height="832" viewBox="0 0 1280 832" fill="none" xmlns="http://www.w3.org/2000/svg">
<g clip-path="url(#clip0_62_6258)">
<rect width="1280" height="832" fill="url(#paint0_linear_62_6258)"/>
<path d="M587.137 924.441L587.104 924.439L587.12 924.417C587.128 924.422 587.13 924.435 587.137 924.441Z" fill="#3652E0"/>
<path d="M627.345 896.736C627.373 896.598 627.393 896.454 627.421 896.315C627.51 896.478 627.446 896.615 627.345 896.736Z" fill="#3652E0"/>
<path d="M587.12 924.417L587.104 924.439L587.137 924.441C587.13 924.435 587.128 924.422 587.12 924.417ZM352.452 566.505C352.401 566.492 352.356 566.471 352.305 566.457C352.349 566.563 352.391 566.654 352.435 566.759C352.536 566.688 352.535 566.59 352.452 566.505ZM585.155 924.702C585.17 924.714 585.194 924.731 585.204 924.751L585.21 924.743L585.155 924.702Z" fill="#3652E0"/>
<path d="M393.108 788.663C392.979 788.459 392.798 788.242 392.617 787.976C392.778 788.203 392.947 788.436 393.108 788.663ZM389.127 783.457C389.794 784.2 390.412 784.979 391.012 785.782C390.31 784.82 389.517 783.718 388.67 782.541C388.817 782.854 388.974 783.151 389.127 783.457ZM368.633 752.826C368.72 752.84 368.814 752.861 368.894 752.883C368.719 752.609 368.589 752.405 368.498 752.266C368.594 752.433 368.684 752.608 368.633 752.826ZM368.498 752.266C368.478 752.227 368.458 752.188 368.432 752.157C368.45 752.182 368.47 752.221 368.498 752.266Z" fill="#3652E0"/>
<path d="M617.056 904.193C618.388 902.802 623.876 896.525 625.042 889.879C625.502 887.23 624.523 886.199 621.47 884.609C517.38 830.401 457.952 794.203 383.805 632.904C373.363 610.195 377.036 583.394 384.346 560.249C387.066 561.134 387.179 558.231 386.825 556.528C381.95 545.488 365.892 547.418 362.554 548.023C359.216 548.627 348.593 556.195 347.211 562.672C346.721 565.711 351.744 565.004 352.452 566.82C358.215 578.899 356.288 592.961 354.716 605.694C354.79 605.808 354.77 605.903 354.657 605.99C353.201 624.329 351.524 613.37 339.949 623.167C323.053 680.668 359.803 743.2 393.125 788.723C393.125 788.723 393.138 788.721 393.132 788.729C438.144 846.128 522.103 923.702 587.142 924.47C598.585 919.988 608.982 913.724 617.056 904.193ZM611.923 900.742C522.222 898.148 449.867 831.707 405.539 758.5C387.804 728.454 348.668 668.885 362.784 634.845C368.122 634.636 376.54 631.243 380.399 635.971C424.984 757.008 474.905 830.253 598.613 878.957C603.957 881.92 612.43 882.062 614.339 888.81C615.327 892.578 615.972 898.983 611.923 900.742Z" fill="#3652E0"/>
<path d="M330.919 668.158C327.09 664.217 336.497 664.97 334.739 667.822C334.002 668.945 332.119 669.134 330.919 668.158Z" fill="#3652E0"/>
<path d="M587.12 924.417C507.132 956.824 391.342 832.5 381.557 821.266C334.129 766.857 285.506 679.646 339.933 623.106C326.281 687.567 359.876 742.671 393.979 789.725C393.979 789.725 393.993 789.722 393.987 789.73C438.724 847.207 519.5 917.72 587.12 924.417Z" fill="#3652E0"/>
<path d="M591.851 924.592C591.827 924.526 591.824 924.462 591.814 924.394C592.165 924.064 592.333 924.651 591.851 924.592Z" fill="#3652E0"/>
<path d="M354.646 605.924C354.564 605.803 354.599 605.706 354.706 605.625C354.78 605.741 354.754 605.844 354.646 605.924Z" fill="#3652E0"/>
<path d="M611.907 900.682C522.206 898.087 449.851 831.646 405.523 758.439C387.788 728.393 348.652 668.824 362.768 634.784C368.106 634.575 376.524 631.182 380.383 635.91C424.968 756.947 474.889 830.192 598.597 878.896C603.941 881.859 612.414 882.001 614.323 888.749C615.316 892.509 615.956 898.923 611.907 900.682Z" fill="#3652E0"/>
<path d="M370.305 752.18C363.045 752.367 366.757 749.61 364.186 744.926C361.813 741.43 357.935 743.303 355.917 737.664C355.553 736.209 364.891 731.523 364.23 735.226C364.922 741.254 367.805 746.736 370.305 752.18Z" fill="#3652E0"/>
<path d="M357.781 727.282C356.428 726.68 344.612 722.115 347.559 720.654C352.717 715.059 358.358 721.442 357.781 727.282Z" fill="#3652E0"/>
<path d="M575.967 914.622C574.687 916.488 571.298 916.352 572.297 913.478C572.845 910.907 579.444 910.928 575.967 914.622Z" fill="#3652E0"/>
<path d="M583.131 906.599C582.71 907.092 582.24 907.536 581.649 907.201C577.289 904.582 586.664 901.586 583.131 906.599Z" fill="#3652E0"/>
<path d="M567.045 903.351C564.926 905.369 562.997 903.8 564.086 901.417C564.404 901.164 568.373 902.114 567.045 903.351Z" fill="#3652E0"/>
<path d="M432.247 738.233C431.534 739.009 429.729 739.788 429.444 738.306C428.375 735.643 434.503 735.381 432.247 738.233Z" fill="#3652E0"/>
<path d="M434.831 744.273C433.517 742.79 435.033 740.32 436.644 742.093C437.35 742.718 436.217 743.091 436.212 743.645C435.711 743.898 435.591 744.841 434.831 744.273Z" fill="#3652E0"/>
<path d="M547.072 856.306C546.356 855.928 545.966 855.4 546.383 854.565C546.804 854.205 546.757 853.176 547.606 853.505C548.877 853.889 548.74 857.041 547.072 856.306Z" fill="#3652E0"/>
<path d="M327.065 663.059C323.225 659.134 332.628 659.859 330.885 662.723C330.156 663.852 328.268 664.048 327.065 663.059Z" fill="#3652E0"/>
<path d="M371.924 588.428C365.82 578.273 353.618 565.938 348.536 565.133C343.471 564.34 351.552 552.049 357.735 550.007C362.211 548.524 366.379 547.58 371.623 547.763C378.368 548 386.71 549.43 386.551 559.519C386.517 561.57 379.471 558.782 377.235 560.265C369.295 563.534 371.974 581.536 371.924 588.428Z" fill="#3652E0"/>
<path d="M629.591 886.774C630.028 880.578 621.707 878.108 616.803 876.134C530.974 841.679 459.935 778.822 419.314 694.468C396.831 652.892 366.319 609.144 388.083 562.958C392.281 557.218 388.598 552.631 386.348 550.755C377.509 545.2 365.844 541.388 356.235 547.817C331.356 562.105 359.358 565.925 348.501 612.105C211.019 699.514 491.848 999.815 602.795 922.68C613.943 914.925 627.492 905.892 629.591 886.774ZM586.681 924.654C517.778 947.95 430.109 874.289 378.479 817.509C336.689 768.243 287.747 680.242 339.933 623.106C351.549 613.303 353.185 624.268 354.641 605.93C354.56 605.809 354.594 605.713 354.7 605.633C356.296 592.785 358.21 575.825 352.305 566.457C350.418 563.852 346.879 565.462 347.195 562.611C348.571 556.142 360.58 548.702 364.588 548.224C368.542 547.754 380.918 546.783 386.092 555.907C386.949 557.42 386.562 558.909 384.336 560.18C382.104 561.46 368.748 599.611 383.781 632.838C413.691 700.814 450.302 770.708 509.251 817.781C543.895 844.916 581.003 869.826 622.126 884.955C628.473 887.292 621.226 899.319 617.038 904.119C606.065 916.686 589.582 923.669 586.681 924.654Z" fill="#3652E0"/>
<path d="M1332.06 233.473L1332.05 233.505L1332.03 233.483C1332.04 233.478 1332.05 233.479 1332.06 233.473Z" fill="#3652E0"/>
<path d="M1315.7 187.468C1315.57 187.405 1315.44 187.349 1315.31 187.286C1315.49 187.242 1315.6 187.339 1315.7 187.468Z" fill="#3652E0"/>
<path d="M1332.03 233.483L1332.05 233.505L1332.06 233.473C1332.05 233.479 1332.04 233.478 1332.03 233.483ZM925.604 367.601C925.579 367.647 925.547 367.686 925.521 367.732C925.634 367.716 925.733 367.699 925.846 367.683C925.803 367.567 925.708 367.543 925.604 367.601ZM1331.8 235.456C1331.81 235.444 1331.84 235.425 1331.86 235.421L1331.85 235.413L1331.8 235.456Z" fill="#3652E0"/>
<path d="M1150.72 385.784C1150.49 385.857 1150.23 385.975 1149.93 386.081C1150.19 385.984 1150.46 385.881 1150.72 385.784ZM1144.66 388.284C1145.55 387.832 1146.46 387.437 1147.39 387.065C1146.28 387.494 1145.01 387.975 1143.66 388.488C1144 388.428 1144.33 388.352 1144.66 388.284ZM1109.77 400.158C1109.81 400.079 1109.85 399.993 1109.89 399.921C1109.58 400.02 1109.35 400.092 1109.2 400.144C1109.38 400.095 1109.57 400.053 1109.77 400.158ZM1109.2 400.144C1109.15 400.154 1109.11 400.163 1109.07 400.18C1109.1 400.169 1109.14 400.16 1109.2 400.144Z" fill="#3652E0"/>
<path d="M1320.24 199.336C1319.24 197.689 1314.59 190.765 1308.48 187.919C1306.04 186.79 1304.79 187.468 1302.46 190.006C1223.18 276.536 1172.84 324.58 997.854 354.488C973.217 358.701 948.277 348.222 927.81 335.174C929.369 332.776 926.594 331.916 924.858 331.818C912.932 333.671 910.643 349.683 910.364 353.063C910.085 356.443 914.648 368.663 920.547 371.672C923.355 372.932 923.972 367.897 925.909 367.683C939.067 365.24 952.153 370.738 964.046 375.55C964.176 375.508 964.261 375.552 964.317 375.683C981.655 381.833 970.636 380.618 977.105 394.333C1028.28 425.526 1098.19 406.199 1150.78 385.785C1150.78 385.785 1150.78 385.771 1150.79 385.778C1217.88 357.143 1314.53 296.103 1332.09 233.476C1330.72 221.263 1327.36 209.599 1320.24 199.336ZM1315.58 203.401C1289.87 289.379 1206.98 342.089 1124.8 365.975C1091.19 375.337 1023.52 397.735 994.292 375.295C995.471 370.085 994.37 361.076 999.935 358.571C1128.38 346.806 1212.05 317.527 1291.09 210.624C1295.33 206.228 1297.66 198.08 1304.68 197.981C1308.57 198.002 1314.92 199.035 1315.58 203.401Z" fill="#3652E0"/>
<path d="M1018.23 414.693C1013.43 417.372 1016.59 408.479 1018.89 410.915C1019.79 411.918 1019.48 413.785 1018.23 414.693Z" fill="#3652E0"/>
<path d="M1332.03 233.483C1342.65 319.132 1192.61 398.828 1179.23 405.375C1114.4 437.118 1017.58 461.531 977.043 394.333C1035.78 424.192 1097.7 405.992 1151.97 385.218C1151.97 385.218 1151.97 385.204 1151.98 385.212C1219.07 356.862 1308.07 297.071 1332.03 233.483Z" fill="#3652E0"/>
<path d="M1333.42 228.959C1333.35 228.965 1333.29 228.951 1333.22 228.944C1332.99 228.519 1333.61 228.509 1333.42 228.959Z" fill="#3652E0"/>
<path d="M964.25 375.676C964.112 375.724 964.027 375.666 963.977 375.542C964.108 375.5 964.2 375.552 964.25 375.676Z" fill="#3652E0"/>
<path d="M1315.51 203.401C1289.81 289.379 1206.92 342.089 1124.73 365.975C1091.12 375.337 1023.46 397.735 994.229 375.295C995.408 370.085 994.307 361.076 999.872 358.571C1128.32 346.806 1211.99 317.527 1291.03 210.624C1295.27 206.228 1297.6 198.08 1304.61 197.981C1308.5 197.994 1314.86 199.035 1315.51 203.401Z" fill="#3652E0"/>
<path d="M1109.58 398.377C1107.88 405.438 1106.18 401.139 1100.99 402.411C1097 403.8 1097.81 408.03 1091.84 408.521C1090.34 408.496 1088.23 398.264 1091.63 399.86C1097.63 400.751 1103.67 399.383 1109.58 398.377Z" fill="#3652E0"/>
<path d="M1082.29 404.035C1081.36 405.186 1073.89 415.42 1073.24 412.196C1069.17 405.766 1076.8 401.968 1082.29 404.035Z" fill="#3652E0"/>
<path d="M1319.69 241.724C1321.16 243.443 1320.15 246.682 1317.63 244.973C1315.29 243.778 1317.02 237.409 1319.69 241.724Z" fill="#3652E0"/>
<path d="M1313.79 232.728C1314.15 233.262 1314.46 233.832 1313.99 234.316C1310.33 237.85 1309.86 228.019 1313.79 232.728Z" fill="#3652E0"/>
<path d="M1306.49 247.428C1307.89 249.996 1305.88 251.454 1303.86 249.786C1303.69 249.413 1305.64 245.824 1306.49 247.428Z" fill="#3652E0"/>
<path d="M1112.13 334.935C1112.69 335.825 1112.98 337.77 1111.47 337.662C1108.62 338.006 1109.96 332.018 1112.13 334.935Z" fill="#3652E0"/>
<path d="M1118.63 334.001C1116.86 334.887 1114.86 332.783 1116.99 331.686C1117.78 331.166 1117.85 332.356 1118.38 332.505C1118.5 333.054 1119.38 333.414 1118.63 334.001Z" fill="#3652E0"/>
<path d="M1255.88 254.553C1255.33 255.148 1254.72 255.387 1254.02 254.768C1253.78 254.269 1252.77 254.048 1253.31 253.313C1254.01 252.185 1257.02 253.132 1255.88 254.553Z" fill="#3652E0"/>
<path d="M1012.31 417.097C1007.52 419.791 1010.66 410.895 1012.97 413.319C1013.87 414.316 1013.57 416.19 1012.31 417.097Z" fill="#3652E0"/>
<path d="M951.818 354.462C940.43 357.732 925.358 366.329 923.267 371.029C921.191 375.717 911.408 364.732 911.034 358.231C910.76 353.524 910.925 349.254 912.459 344.235C914.432 337.782 917.971 330.093 927.676 332.856C929.648 333.419 925.132 339.505 925.987 342.048C927.091 350.563 945.173 352.631 951.818 354.462Z" fill="#3652E0"/>
<path d="M1306.65 182.722C1300.78 180.697 1296.24 188.096 1293.07 192.324C1237.59 266.321 1158.5 318.687 1066.51 336.109C1020.53 347.074 970.379 365.234 931.393 332.265C926.935 326.726 921.551 329.097 919.157 330.785C911.505 337.887 904.806 348.169 908.532 359.114C915.899 386.841 926.831 360.781 968.632 383.212C1017.51 538.622 1380.22 345.014 1334.41 217.892C1329.8 205.118 1324.58 189.694 1306.65 182.722ZM1332.15 233.969C1336.83 306.553 1243 372.188 1174.8 407.377C1116.4 435.003 1018.74 459.52 977.043 394.333C970.578 380.577 981.592 381.833 964.254 375.683C964.117 375.731 964.033 375.673 963.983 375.549C951.985 370.685 936.097 364.45 925.521 367.732C922.516 368.88 923.156 372.715 920.484 371.672C914.591 368.67 910.509 355.146 911.084 351.15C911.653 347.21 913.916 335.003 924.068 332.365C925.75 331.929 927.089 332.687 927.741 335.167C928.4 337.654 961.8 360.422 997.784 354.494C1071.18 343.183 1148.17 325.893 1208.88 281.124C1244.06 254.677 1277.72 225.274 1302.97 189.462C1306.86 183.936 1316.61 194.047 1320.16 199.334C1329.46 213.184 1331.95 230.912 1332.15 233.969Z" fill="#3652E0"/>
<path d="M333.145 284.167L333.135 284.199L333.118 284.177C333.125 284.171 333.138 284.173 333.145 284.167Z" fill="#3652E0"/>
<path d="M316.782 238.162C316.656 238.099 316.522 238.042 316.395 237.98C316.575 237.936 316.691 238.033 316.782 238.162Z" fill="#3652E0"/>
<path d="M333.118 284.177L333.135 284.199L333.145 284.167C333.138 284.173 333.125 284.171 333.118 284.177ZM-73.3087 418.295C-73.3345 418.341 -73.3664 418.379 -73.3922 418.425C-73.2792 418.41 -73.18 418.393 -73.0669 418.377C-73.1102 418.261 -73.205 418.237 -73.3087 418.295ZM332.885 286.15C332.901 286.137 332.924 286.119 332.945 286.114L332.939 286.107L332.885 286.15Z" fill="#3652E0"/>
<path d="M151.806 436.478C151.576 436.551 151.319 436.669 151.016 436.775C151.277 436.678 151.545 436.575 151.806 436.478ZM145.747 438.978C146.638 438.525 147.55 438.131 148.481 437.759C147.37 438.188 146.101 438.669 144.744 439.182C145.085 439.122 145.413 439.046 145.747 438.978ZM110.858 450.852C110.895 450.773 110.939 450.687 110.981 450.615C110.671 450.714 110.441 450.786 110.282 450.838C110.468 450.789 110.661 450.747 110.858 450.852ZM110.282 450.838C110.239 450.847 110.197 450.857 110.16 450.874C110.189 450.863 110.232 450.854 110.282 450.838Z" fill="#3652E0"/>
<path d="M321.325 250.03C320.325 248.383 315.681 241.459 309.563 238.613C307.123 237.484 305.874 238.162 303.548 240.7C224.264 327.23 173.928 375.274 -1.05928 405.182C-25.6961 409.395 -50.6357 398.916 -71.1029 385.868C-69.5441 383.47 -72.3193 382.61 -74.0556 382.512C-85.9815 384.365 -88.27 400.377 -88.5492 403.757C-88.8284 407.137 -84.2655 419.357 -78.3665 422.366C-75.5577 423.626 -74.9409 418.591 -73.0041 418.377C-59.8458 415.934 -46.76 421.432 -34.8671 426.243C-34.7374 426.202 -34.6517 426.246 -34.5962 426.377C-17.2583 432.527 -28.2773 431.312 -21.8079 445.027C29.3672 476.22 99.2765 456.892 151.869 436.478C151.869 436.478 151.87 436.465 151.876 436.472C218.963 407.837 315.612 346.797 333.175 284.17C331.805 271.957 328.443 260.293 321.325 250.03ZM316.664 254.095C290.959 340.073 208.065 392.783 125.884 416.669C92.2736 426.03 24.6099 448.429 -4.6211 425.989C-3.44263 420.779 -4.54305 411.77 1.02202 409.265C129.472 397.5 213.136 368.221 292.177 261.318C296.421 256.922 298.75 248.774 305.762 248.675C309.657 248.696 316.012 249.729 316.664 254.095Z" fill="#3652E0"/>
<path d="M19.3176 465.386C14.5203 468.066 17.6806 459.173 19.9804 461.609C20.875 462.612 20.5703 464.479 19.3176 465.386Z" fill="#3652E0"/>
<path d="M333.118 284.177C343.736 369.826 193.695 449.522 180.313 456.069C115.488 487.811 18.6697 512.225 -21.8706 445.027C36.8666 474.886 98.7837 456.686 153.057 435.912C153.057 435.912 153.058 435.898 153.064 435.906C220.156 407.556 309.161 347.765 333.118 284.177Z" fill="#3652E0"/>
<path d="M334.511 279.652C334.44 279.659 334.379 279.645 334.309 279.637C334.082 279.213 334.693 279.203 334.511 279.652Z" fill="#3652E0"/>
<path d="M-34.6631 426.37C-34.8014 426.418 -34.8863 426.36 -34.936 426.235C-34.8053 426.194 -34.7128 426.246 -34.6631 426.37Z" fill="#3652E0"/>
<path d="M316.601 254.095C290.896 340.073 208.002 392.783 125.821 416.669C92.2106 426.03 24.5469 448.429 -4.68408 425.989C-3.50561 420.779 -4.60602 411.77 0.959041 409.265C129.409 397.5 213.073 368.221 292.114 261.318C296.358 256.922 298.687 248.774 305.699 248.675C309.588 248.688 315.949 249.729 316.601 254.095Z" fill="#3652E0"/>
<path d="M110.667 449.071C108.97 456.132 107.267 451.833 102.077 453.105C98.0866 454.494 98.8925 458.723 92.9241 459.215C91.4234 459.19 89.3129 448.957 92.7189 450.554C98.72 451.444 104.762 450.077 110.667 449.071Z" fill="#3652E0"/>
<path d="M83.3767 454.729C82.4458 455.88 74.9797 466.113 74.3304 462.889C70.2599 456.459 77.8846 452.661 83.3767 454.729Z" fill="#3652E0"/>
<path d="M320.772 292.418C322.244 294.137 321.235 297.375 318.718 295.667C316.376 294.472 318.103 288.103 320.772 292.418Z" fill="#3652E0"/>
<path d="M314.875 283.422C315.242 283.956 315.55 284.526 315.073 285.01C311.416 288.544 310.946 278.713 314.875 283.422Z" fill="#3652E0"/>
<path d="M307.577 298.122C308.978 300.69 306.964 302.148 304.943 300.48C304.782 300.107 306.726 296.518 307.577 298.122Z" fill="#3652E0"/>
<path d="M113.214 385.629C113.78 386.519 114.065 388.464 112.56 388.355C109.711 388.699 111.042 382.712 113.214 385.629Z" fill="#3652E0"/>
<path d="M119.717 384.695C117.945 385.581 115.951 383.477 118.08 382.379C118.866 381.859 118.933 383.05 119.467 383.199C119.582 383.747 120.462 384.108 119.717 384.695Z" fill="#3652E0"/>
<path d="M256.967 305.247C256.416 305.842 255.806 306.081 255.107 305.462C254.868 304.963 253.862 304.742 254.4 304.007C255.099 302.879 258.108 303.826 256.967 305.247Z" fill="#3652E0"/>
<path d="M13.3951 467.79C8.61004 470.485 11.7428 461.589 14.0578 464.013C14.9601 465.009 14.6615 466.884 13.3951 467.79Z" fill="#3652E0"/>
<path d="M-47.0948 405.156C-58.4836 408.425 -73.555 417.023 -75.6461 421.723C-77.722 426.411 -87.5048 415.426 -87.8791 408.925C-88.1535 404.218 -87.9877 399.948 -86.454 394.929C-84.481 388.476 -80.9417 380.787 -71.2372 383.55C-69.2654 384.113 -73.7809 390.198 -72.9264 392.742C-71.8217 401.257 -53.7397 403.325 -47.0948 405.156Z" fill="#3652E0"/>
<path d="M307.74 233.416C301.868 231.391 297.33 238.79 294.155 243.017C238.674 317.015 159.583 369.38 67.593 386.803C21.6173 397.768 -28.5337 415.928 -67.5197 382.959C-71.9781 377.419 -77.3618 379.791 -79.7561 381.479C-87.4081 388.581 -94.1069 398.863 -90.3816 409.808C-83.0145 437.535 -72.0826 411.475 -30.2816 433.905C18.5969 589.316 381.311 395.708 335.494 268.586C330.886 255.812 325.665 240.388 307.74 233.416ZM333.233 284.663C337.917 357.246 244.088 422.881 175.887 458.071C117.489 485.697 19.825 510.214 -21.8706 445.027C-28.3356 431.271 -17.3209 432.527 -34.6588 426.377C-34.7961 426.425 -34.8804 426.367 -34.9297 426.243C-46.9282 421.379 -62.8164 415.144 -73.3922 418.425C-76.3967 419.574 -75.7571 423.409 -78.4291 422.366C-84.322 419.364 -88.4038 405.84 -87.829 401.844C-87.26 397.904 -84.9969 385.697 -74.845 383.059C-73.1627 382.622 -71.8243 383.381 -71.1717 385.86C-70.5129 388.348 -37.1136 411.116 -1.12951 405.187C72.2695 393.876 149.254 376.587 209.971 331.818C245.143 305.371 278.802 275.968 304.052 240.156C307.951 234.629 317.695 244.74 321.248 250.028C330.55 263.878 333.032 281.606 333.233 284.663Z" fill="#3652E0"/>
<path d="M933.544 89.818L933.512 89.8261L933.521 89.7999C933.53 89.803 933.536 89.8149 933.544 89.818Z" fill="#3652E0"/>
<path d="M964.192 51.806C964.18 51.6654 964.158 51.5214 964.145 51.3808C964.277 51.5114 964.255 51.6606 964.192 51.806Z" fill="#3652E0"/>
<path d="M933.521 89.7999L933.512 89.8261L933.544 89.818C933.536 89.8149 933.53 89.803 933.521 89.7999ZM606.605 -186.417C606.552 -186.415 606.503 -186.422 606.45 -186.42C606.523 -186.332 606.589 -186.257 606.662 -186.168C606.738 -186.266 606.709 -186.359 606.605 -186.417ZM931.719 90.6337C931.737 90.6403 931.765 90.6501 931.78 90.6659L931.783 90.6567L931.719 90.6337Z" fill="#3652E0"/>
<path d="M708.873 14.9495C708.69 14.7909 708.456 14.6344 708.206 14.431C708.425 14.6028 708.654 14.7778 708.873 14.9495ZM703.572 11.0938C704.424 11.616 705.238 12.187 706.042 12.7857C705.095 12.0633 704.021 11.233 702.874 10.3455C703.103 10.6042 703.34 10.8444 703.572 11.0938ZM675.201 -12.4289C675.288 -12.4395 675.384 -12.4469 675.468 -12.4483C675.222 -12.6608 675.04 -12.8194 674.912 -12.9273C675.051 -12.7943 675.188 -12.6522 675.201 -12.4289ZM674.912 -12.9273C674.882 -12.9589 674.851 -12.9905 674.818 -13.0128C674.842 -12.9938 674.873 -12.9621 674.912 -12.9273Z" fill="#3652E0"/>
<path d="M956.454 61.8855C957.335 60.172 960.807 52.5921 960.031 45.8891C959.717 43.2189 958.485 42.5093 955.106 41.8552C839.885 19.5512 772.607 1.78468 655.577 -131.703C639.098 -150.495 634.982 -177.232 635.395 -201.501C638.255 -201.427 637.535 -204.242 636.711 -205.773C628.893 -214.968 614.05 -208.542 611.023 -207.012C607.996 -205.481 599.969 -195.2 600.49 -188.598C600.885 -185.545 605.499 -187.654 606.694 -186.115C615.66 -176.179 617.82 -162.15 619.941 -149.497C620.044 -149.409 620.052 -149.312 619.969 -149.196C623.798 -131.203 619.069 -141.23 610.764 -128.541C610.951 -68.6094 663.995 -19.1397 708.905 15.0029C708.905 15.0029 708.918 14.9969 708.914 15.0061C768.414 57.2014 870.995 107.639 933.557 89.8443C943.249 82.2888 951.431 73.3211 956.454 61.8855ZM950.551 60.0402C863.829 83.1104 775.543 40.0383 712.194 -17.5054C686.634 -41.2528 632.148 -87.2023 635.98 -123.853C641.037 -125.575 648.14 -131.225 653.186 -127.793C730.408 -24.4756 799.129 31.511 931.586 42.9501C937.552 44.2671 945.715 41.9893 949.468 47.9135C951.488 51.244 953.931 57.2005 950.551 60.0402Z" fill="#3652E0"/>
<path d="M614.927 -82.8415C610.134 -85.5285 619.366 -87.4871 618.493 -84.2526C618.107 -82.9658 616.356 -82.2487 614.927 -82.8415Z" fill="#3652E0"/>
<path d="M933.521 89.7999C866.082 143.654 719.67 57.4734 707.089 49.4925C646.125 10.8511 574.669 -58.8909 610.731 -128.595C616.011 -62.9157 663.913 -19.6679 710.01 15.7192C710.01 15.7192 710.022 15.7132 710.019 15.7225C769.277 58.0708 866.796 102.647 933.521 89.7999Z" fill="#3652E0"/>
<path d="M938.106 88.6202C938.064 88.5632 938.044 88.5035 938.014 88.4406C938.256 88.0245 938.585 88.5395 938.106 88.6202Z" fill="#3652E0"/>
<path d="M619.94 -149.257C619.826 -149.35 619.832 -149.453 619.912 -149.56C620.016 -149.471 620.02 -149.365 619.94 -149.257Z" fill="#3652E0"/>
<path d="M950.518 59.9865C863.796 83.0567 775.51 39.9846 712.161 -17.5591C686.601 -41.3065 632.115 -87.256 635.947 -123.907C641.005 -125.628 648.107 -131.279 653.153 -127.847C730.375 -24.5293 799.096 31.4573 931.553 42.8964C937.519 44.2134 945.682 41.9356 949.435 47.8599C951.458 51.1812 953.898 57.1468 950.518 59.9865Z" fill="#3652E0"/>
<path d="M676.619 -13.5239C669.714 -11.2764 672.487 -14.9771 668.688 -18.734C665.417 -21.4086 662.234 -18.5092 658.693 -23.3388C657.928 -24.6305 665.545 -31.7822 665.967 -28.0444C668.347 -22.464 672.673 -18.0304 676.619 -13.5239Z" fill="#3652E0"/>
<path d="M657.521 -33.8224C656.053 -34.0133 643.426 -35.0229 645.834 -37.2629C649.184 -44.0957 656.41 -39.5845 657.521 -33.8224Z" fill="#3652E0"/>
<path d="M920.04 83.5888C919.344 85.7428 916.057 86.5772 916.196 83.5384C915.989 80.9169 922.321 79.0573 920.04 83.5888Z" fill="#3652E0"/>
<path d="M924.621 73.8569C924.358 74.4493 924.034 75.0096 923.372 74.8567C918.447 73.5888 926.58 68.0458 924.621 73.8569Z" fill="#3652E0"/>
<path d="M908.276 75.327C906.82 77.8651 904.524 76.9109 904.889 74.3165C905.121 73.9836 909.197 73.763 908.276 75.327Z" fill="#3652E0"/>
<path d="M732.021 -44.5416C731.558 -43.594 730.05 -42.3331 729.354 -43.6729C727.571 -45.9207 733.371 -47.9182 732.021 -44.5416Z" fill="#3652E0"/>
<path d="M736.219 -39.4876C734.537 -40.5347 735.286 -43.3349 737.335 -42.0945C738.19 -41.6962 737.21 -41.0161 737.363 -40.4833C736.956 -40.0983 737.109 -39.1597 736.219 -39.4876Z" fill="#3652E0"/>
<path d="M875.728 35.9226C874.933 35.764 874.409 35.3692 874.571 34.4495C874.872 33.9848 874.534 33.0116 875.442 33.0858C876.769 33.0911 877.535 36.1514 875.728 35.9226Z" fill="#3652E0"/>
<path d="M609.78 -86.6314C604.98 -89.2999 614.201 -91.2836 613.346 -88.0425C612.969 -86.7524 611.215 -86.0261 609.78 -86.6314Z" fill="#3652E0"/>
<path d="M631.516 -170.95C622.772 -178.946 607.561 -187.293 602.461 -186.616C597.38 -185.933 601.624 -200.017 606.968 -203.737C610.837 -206.433 614.563 -208.526 619.642 -209.844C626.174 -211.538 634.579 -212.544 637.301 -202.828C637.853 -200.853 630.304 -201.518 628.583 -199.459C621.904 -194.063 629.601 -177.571 631.516 -170.95Z" fill="#3652E0"/>
<path d="M963.507 41.6171C962.161 35.5529 953.481 35.5559 948.217 35.0616C856.129 26.4882 770.125 -13.5237 707.154 -82.8081C673.758 -116.255 632.046 -149.496 639.749 -199.969C642.138 -206.667 637.3 -210.014 634.609 -211.172C624.553 -213.978 612.286 -214.308 604.907 -205.408C585.13 -184.624 613.059 -188.94 615.81 -141.581C508.931 -18.6246 863.68 189.217 948.052 83.6686C956.528 73.0591 966.942 60.5407 963.507 41.6171ZM933.168 90.1521C873.758 132.115 768.736 86.4843 703.068 46.7684C648.974 11.4509 576.988 -58.9583 610.731 -128.595C619.073 -141.301 623.765 -131.257 619.936 -149.25C619.824 -149.342 619.829 -149.444 619.909 -149.551C617.778 -162.321 614.78 -179.124 606.45 -186.42C603.9 -188.38 600.966 -185.829 600.457 -188.652C599.933 -195.244 609.324 -205.798 613.03 -207.398C616.685 -208.975 628.272 -213.432 635.832 -206.16C637.084 -204.954 637.138 -203.417 635.366 -201.564C633.591 -199.701 631.658 -159.326 655.535 -131.759C703.572 -75.122 758.58 -18.5565 828.497 9.77004C869.436 25.9103 912.103 39.2145 955.833 41.9999C962.583 42.4315 959.063 56.0255 956.416 61.8195C949.478 76.9918 935.668 88.3817 933.168 90.1521Z" fill="#3652E0"/>
</g>
<defs>
<linearGradient id="paint0_linear_62_6258" x1="1.11362e-05" y1="158.794" x2="922.471" y2="1051.61" gradientUnits="userSpaceOnUse">
<stop stop-color="#4B6DED"/>
<stop offset="1" stop-color="#3652E0"/>
</linearGradient>
<clipPath id="clip0_62_6258">
<rect width="1280" height="832" fill="white"/>
</clipPath>
</defs>
</svg>
