<?xml version="1.0" encoding="utf-8"?>
<!-- Generator: Adobe Illustrator 27.0.0, SVG Export Plug-In . SVG Version: 6.00 Build 0)  -->
<svg version="1.1" id="Calque_1" xmlns="http://www.w3.org/2000/svg" xmlns:xlink="http://www.w3.org/1999/xlink" x="0px" y="0px"
	 viewBox="0 0 500 500" style="enable-background:new 0 0 500 500;" xml:space="preserve">
<style type="text/css">
	.st0{display:none;}
	.st1{display:inline;}
	.st2{fill:#030202;}
	.st3{fill:#5C4303;}
	.st4{fill:#FEC816;}
	.st5{fill:#FFC916;}
	.st6{fill:#CB8305;}
	.st7{fill:#CC8405;}
	.st8{fill:#FED85C;}
	.st9{opacity:0.7;}
	.st10{opacity:0.81;fill:#5C4303;enable-background:new    ;}
	.st11{opacity:0.7;fill:#5C4303;enable-background:new    ;}
	.st12{fill:#362100;}
</style>
<g id="Calque_1_00000164511538358303669500000000264815200883827625_">
	<path class="st2" d="M430.1,476.2L430.1,476.2L430.1,476.2C430.1,476.2,430.1,476.2,430.1,476.2z"/>
	<path class="st2" d="M479.4,433.2c0-0.2,0-0.4,0-0.6C479.6,432.9,479.5,433.1,479.4,433.2z"/>
	<path class="st4" d="M430,476.2L430,476.2L430,476.2C430.1,476.2,430.1,476.2,430,476.2z M62.7,35.3c-0.1,0-0.1,0-0.2,0
		c0.1,0.1,0.1,0.2,0.2,0.4C62.8,35.5,62.8,35.4,62.7,35.3z M427.5,476.8C427.5,476.8,427.5,476.9,427.5,476.8L427.5,476.8
		L427.5,476.8z"/>
	<path class="st5" d="M150.9,324.8c-0.2-0.3-0.5-0.5-0.8-0.8C150.3,324.3,150.6,324.6,150.9,324.8z M144.8,318.5
		c1,0.9,1.9,1.8,2.9,2.8c-1.1-1.2-2.3-2.5-3.6-4C144.3,317.7,144.5,318.1,144.8,318.5z M112.8,280.8c0.1,0,0.2,0,0.4,0
		c-0.3-0.3-0.5-0.6-0.6-0.8C112.7,280.3,112.8,280.5,112.8,280.8z M112.5,280.1c0,0-0.1-0.1-0.1-0.1
		C112.4,280,112.5,280.1,112.5,280.1z"/>
	<path class="st5" d="M466.8,444.7c1.6-2.1,7.9-11.2,8.4-20.3c0.2-3.6-1.3-4.8-5.6-6.5c-146.9-56.4-231.6-95.6-355.1-299
		C97.2,90.3,98,54.1,104.2,22.2c3.8,0.8,3.5-3.1,2.7-5.3c-8.2-14-29.3-9-33.6-7.6c-4.4,1.3-17.3,13-18.2,21.8
		c-0.2,4.1,6.4,2.4,7.6,4.7c9.5,15.2,9.1,34.2,9,51.4c0.1,0.1,0.1,0.3,0,0.4c0.9,24.6-3,10.3-17,25.1
		C41,191.7,99.5,269.4,150.9,324.9c0,0,0,0,0,0c68.7,69.6,192.4,160.1,279.2,151.3C444.6,468.5,457.5,458.6,466.8,444.7z
		 M459.5,440.9C339.6,451,233,373.5,162.8,282.8c-28.2-37.3-89.5-110.7-75.9-158.1c7.1-1.1,17.8-6.9,23.6-1.2
		c77.9,154.3,155.6,244.3,327.9,290.4c7.6,3.1,18.9,2,22.5,10.7C462.7,429.5,464.6,437.9,459.5,440.9z"/>
	<path class="st6" d="M49.6,173.9c-5.7-4.7,6.9-5.1,5-1C53.8,174.4,51.3,175,49.6,173.9z"/>
	<path class="st7" d="M430,476.2C328.5,531.4,155.2,383.4,140.5,370C69,304.7-9.2,196,54.7,112.5c-8.3,87.9,44.9,156.1,97.5,213.6
		c0,0,0,0,0,0C220.6,395.8,339,477.5,430,476.2z"/>
	<path class="st3" d="M436.4,475.7c0-0.1-0.1-0.2-0.1-0.3C436.7,474.9,437,475.7,436.4,475.7z"/>
	<path class="st3" d="M71.6,87.4c-0.1-0.1-0.1-0.3,0-0.4C71.8,87.2,71.8,87.3,71.6,87.4z"/>
	<path class="st8" d="M459.4,440.8C339.6,450.9,233,373.5,162.8,282.7c-28.2-37.3-89.5-110.7-75.9-158.1c7.1-1.1,17.8-6.9,23.6-1.2
		c77.9,154.3,155.6,244.3,327.9,290.4c7.6,3.1,18.9,2,22.5,10.7C462.7,429.4,464.5,437.9,459.4,440.8z"/>
</g>
<g id="Calque_2_00000050653879337392904430000011727616410591541657_" class="st9">
	<path class="st10" d="M114.9,279.7c-9.6,1.3-5.1-2.9-9.3-8.7c-3.7-4.3-8.6-1.2-12.1-8.4c-0.7-1.9,11-9.5,10.7-4.5
		C106.1,266,110.7,272.9,114.9,279.7z"/>
	<path class="st10" d="M94.4,248.5c-1.9-0.6-18.3-4.9-14.6-7.3C85.8,233,94.3,240.6,94.4,248.5z"/>
	<path class="st10" d="M413.7,464.8c-1.4,2.7-6,3-5.1-1C409,460.3,417.8,459.4,413.7,464.8z"/>
	<path class="st10" d="M422,453c-0.5,0.7-1,1.4-1.9,1C413.9,451.2,425.9,445.8,422,453z"/>
	<path class="st10" d="M400.1,451.2c-2.5,3-5.3,1.2-4.2-2.1C396.2,448.6,401.7,449.3,400.1,451.2z"/>
	<path class="st10" d="M195.3,251.8c-0.8,1.1-3.1,2.5-3.7,0.5C189.7,248.9,197.8,247.7,195.3,251.8z"/>
	<path class="st10" d="M199.6,259.4c-2-1.8-0.3-5.3,2.1-3.2c1,0.7-0.4,1.4-0.3,2.1C200.7,258.8,200.7,260.1,199.6,259.4z"/>
	<path class="st10" d="M366.3,391.6c-1-0.4-1.6-1-1.2-2.2c0.5-0.5,0.3-1.9,1.5-1.6C368.3,388.1,368.6,392.3,366.3,391.6z"/>
	<path class="st10" d="M43.7,167.7c-5.7-4.6,6.9-5.1,5-1C47.9,168.2,45.4,168.8,43.7,167.7z"/>
	<path class="st11" d="M92,61.5C82.3,49,64.1,34.4,57.2,34.1c-6.9-0.3,2-17.9,9.9-21.5C72.9,9.9,78.3,8,85.3,7.5
		c9-0.7,20.3-0.1,21.7,13.4c0.3,2.7-9.5,0.1-12.3,2.4C84.6,28.8,91,52.4,92,61.5z"/>
</g>
<g id="Calque_4">
	<path class="st12" d="M480.8,419.6c-0.4-8.3-11.8-10.3-18.7-12.2c-119.6-32.9-223.8-105.8-290.9-211.9
		C135,143.6,87.7,90,109.6,25.2c4.7-8.3-0.9-13.8-4.2-16C92.8,3.2,76.6-0.1,64.8,9.9c-30.9,22.8,6.9,23.6-0.4,86.7
		c-169.7,137.1,250.3,494.3,386.3,374.9C464.3,459.5,481,445.4,480.8,419.6z M429.5,476.5c-88.2,41.4-216.2-43.3-293.7-111.1
		c-63.2-59.2-141.9-169-81.1-252.9c14-14.8,17.8-0.5,17-25.1c-0.1-0.1-0.1-0.3,0-0.4c0.2-17.3,0.1-40.2-9.2-51.8
		c-2.9-3.2-7.4-0.5-7.4-4.3c0.8-8.8,15.7-20.5,21-21.8c5.2-1.2,21.5-4.4,29.8,7c1.4,1.9,1.1,3.9-1.7,6c-2.8,2-14.7,54.8,10.4,96.8
		C164.8,204.8,224.3,292.3,310,346c50.3,30.9,103.5,58.4,160.6,72.3c8.8,2.2,1,19.3-3.8,26.3C454.1,463,433.2,474.8,429.5,476.5z"/>
</g>
<g id="Calque_1_00000112597158423891615390000015474136509526993306_">
</g>
</svg>
