<?xml version="1.0" encoding="utf-8"?>
<!-- Generator: Adobe Illustrator 27.0.0, SVG Export Plug-In . SVG Version: 6.00 Build 0)  -->
<svg version="1.1" id="Calque_1" xmlns="http://www.w3.org/2000/svg" xmlns:xlink="http://www.w3.org/1999/xlink" x="0px" y="0px"
	 viewBox="0 0 500 500" style="enable-background:new 0 0 500 500;" xml:space="preserve">
<style type="text/css">
	.st0{display:none;}
	.st1{display:inline;}
	.st2{fill:#030202;}
	.st3{fill:#5C4303;}
	.st4{fill:#FEC816;}
	.st5{fill:#FFC916;}
	.st6{fill:#CB8305;}
	.st7{fill:#CC8405;}
	.st8{fill:#FED85C;}
	.st9{opacity:0.7;}
	.st10{opacity:0.81;fill:#5C4303;enable-background:new    ;}
	.st11{opacity:0.7;fill:#5C4303;enable-background:new    ;}
	.st12{fill:#362100;}
</style>
<g id="Calque_3" class="st0">
	<g id="ZL9CBX_00000173860714786389183000000010088188988662795689_" class="st1">
		
			<image style="overflow:visible;enable-background:new    ;" width="288" height="177" id="ZL9CBX_00000001665281877099926480000012543627657304605336_" xlink:href="8D7796B638D12E05.jpeg"  transform="matrix(1.793 0 0 1.793 -10.254 -322.369)">
		</image>
	</g>
</g>
<g id="Calque_1_00000164511538358303669500000000264815200883827625_">
	<path class="st2" d="M430.1,476.2L430.1,476.2L430.1,476.2C430.1,476.2,430.1,476.2,430.1,476.2z"/>
	<path class="st3" d="M114.5,103.3L114.5,103.3z"/>
	<path class="st2" d="M479.4,433.2c0-0.2,0-0.4,0-0.6C479.6,432.9,479.5,433.1,479.4,433.2z"/>
	<path class="st4" d="M430,476.2L430,476.2L430,476.2C430.1,476.2,430.1,476.2,430,476.2z M62.7,35.3c-0.1,0-0.1,0-0.2,0
		c0.1,0.1,0.1,0.2,0.2,0.4C62.8,35.5,62.8,35.4,62.7,35.3z M427.5,476.8C427.5,476.8,427.5,476.9,427.5,476.8L427.5,476.8
		L427.5,476.8z"/>
	<path class="st5" d="M150.9,324.8c-0.2-0.3-0.5-0.5-0.8-0.8C150.3,324.3,150.6,324.6,150.9,324.8z M144.8,318.5
		c1,0.9,1.9,1.8,2.9,2.8c-1.1-1.2-2.3-2.5-3.6-4C144.3,317.7,144.5,318.1,144.8,318.5z M112.8,280.8c0.1,0,0.2,0,0.4,0
		c-0.3-0.3-0.5-0.6-0.6-0.8C112.7,280.3,112.8,280.5,112.8,280.8z M112.5,280.1c0,0-0.1-0.1-0.1-0.1
		C112.4,280,112.5,280.1,112.5,280.1z"/>
	<path class="st5" d="M466.8,444.7c1.6-2.1,7.9-11.2,8.4-20.3c0.2-3.6-1.3-4.8-5.6-6.5c-146.9-56.4-231.6-95.6-355.1-299
		C97.2,90.3,98,54.1,104.2,22.2c3.8,0.8,3.5-3.1,2.7-5.3c-8.2-14-29.3-9-33.6-7.6c-4.4,1.3-17.3,13-18.2,21.8
		c-0.2,4.1,6.4,2.4,7.6,4.7c9.5,15.2,9.1,34.2,9,51.4c0.1,0.1,0.1,0.3,0,0.4c0.9,24.6-3,10.3-17,25.1
		C41,191.7,99.5,269.4,150.9,324.9c0,0,0,0,0,0c68.7,69.6,192.4,160.1,279.2,151.3C444.6,468.5,457.5,458.6,466.8,444.7z
		 M459.5,440.9C339.6,451,233,373.5,162.8,282.8c-28.2-37.3-89.5-110.7-75.9-158.1c7.1-1.1,17.8-6.9,23.6-1.2
		c77.9,154.3,155.6,244.3,327.9,290.4c7.6,3.1,18.9,2,22.5,10.7C462.7,429.5,464.6,437.9,459.5,440.9z"/>
	<path class="st6" d="M49.6,173.9c-5.7-4.7,6.9-5.1,5-1C53.8,174.4,51.3,175,49.6,173.9z"/>
	<path class="st7" d="M430,476.2C328.5,531.4,155.2,383.4,140.5,370C69,304.7-9.2,196,54.7,112.5c-8.3,87.9,44.9,156.1,97.5,213.6
		c0,0,0,0,0,0C220.6,395.8,339,477.5,430,476.2z"/>
	<path class="st3" d="M436.4,475.7c0-0.1-0.1-0.2-0.1-0.3C436.7,474.9,437,475.7,436.4,475.7z"/>
	<path class="st3" d="M71.6,87.4c-0.1-0.1-0.1-0.3,0-0.4C71.8,87.2,71.8,87.3,71.6,87.4z"/>
	<path class="st8" d="M459.4,440.8C339.6,450.9,233,373.5,162.8,282.7c-28.2-37.3-89.5-110.7-75.9-158.1c7.1-1.1,17.8-6.9,23.6-1.2
		c77.9,154.3,155.6,244.3,327.9,290.4c7.6,3.1,18.9,2,22.5,10.7C462.7,429.4,464.5,437.9,459.4,440.8z"/>
</g>
<g id="Calque_2_00000050653879337392904430000011727616410591541657_" class="st9">
	<path class="st10" d="M114.9,279.7c-9.6,1.3-5.1-2.9-9.3-8.7c-3.7-4.3-8.6-1.2-12.1-8.4c-0.7-1.9,11-9.5,10.7-4.5
		C106.1,266,110.7,272.9,114.9,279.7z"/>
	<path class="st10" d="M94.4,248.5c-1.9-0.6-18.3-4.9-14.6-7.3C85.8,233,94.3,240.6,94.4,248.5z"/>
	<path class="st10" d="M413.7,464.8c-1.4,2.7-6,3-5.1-1C409,460.3,417.8,459.4,413.7,464.8z"/>
	<path class="st10" d="M422,453c-0.5,0.7-1,1.4-1.9,1C413.9,451.2,425.9,445.8,422,453z"/>
	<path class="st10" d="M400.1,451.2c-2.5,3-5.3,1.2-4.2-2.1C396.2,448.6,401.7,449.3,400.1,451.2z"/>
	<path class="st10" d="M195.3,251.8c-0.8,1.1-3.1,2.5-3.7,0.5C189.7,248.9,197.8,247.7,195.3,251.8z"/>
	<path class="st10" d="M199.6,259.4c-2-1.8-0.3-5.3,2.1-3.2c1,0.7-0.4,1.4-0.3,2.1C200.7,258.8,200.7,260.1,199.6,259.4z"/>
	<path class="st10" d="M366.3,391.6c-1-0.4-1.6-1-1.2-2.2c0.5-0.5,0.3-1.9,1.5-1.6C368.3,388.1,368.6,392.3,366.3,391.6z"/>
	<path class="st10" d="M43.7,167.7c-5.7-4.6,6.9-5.1,5-1C47.9,168.2,45.4,168.8,43.7,167.7z"/>
	<path class="st11" d="M92,61.5C82.3,49,64.1,34.4,57.2,34.1c-6.9-0.3,2-17.9,9.9-21.5C72.9,9.9,78.3,8,85.3,7.5
		c9-0.7,20.3-0.1,21.7,13.4c0.3,2.7-9.5,0.1-12.3,2.4C84.6,28.8,91,52.4,92,61.5z"/>
</g>
<g id="Calque_4">
	<path class="st12" d="M480.8,419.6c-0.4-8.3-11.8-10.3-18.7-12.2c-119.6-32.9-223.8-105.8-290.9-211.9
		C135,143.6,87.7,90,109.6,25.2c4.7-8.3-0.9-13.8-4.2-16C92.8,3.2,76.6-0.1,64.8,9.9c-30.9,22.8,6.9,23.6-0.4,86.7
		c-169.7,137.1,250.3,494.3,386.3,374.9C464.3,459.5,481,445.4,480.8,419.6z M429.5,476.5c-88.2,41.4-216.2-43.3-293.7-111.1
		c-63.2-59.2-141.9-169-81.1-252.9c14-14.8,17.8-0.5,17-25.1c-0.1-0.1-0.1-0.3,0-0.4c0.2-17.3,0.1-40.2-9.2-51.8
		c-2.9-3.2-7.4-0.5-7.4-4.3c0.8-8.8,15.7-20.5,21-21.8c5.2-1.2,21.5-4.4,29.8,7c1.4,1.9,1.1,3.9-1.7,6c-2.8,2-14.7,54.8,10.4,96.8
		C164.8,204.8,224.3,292.3,310,346c50.3,30.9,103.5,58.4,160.6,72.3c8.8,2.2,1,19.3-3.8,26.3C454.1,463,433.2,474.8,429.5,476.5z"/>
</g>
<g id="Calque_1_00000112597158423891615390000015474136509526993306_">
	<path class="st2" d="M452.5-98.4L452.5-98.4L452.5-98.4C452.5-98.4,452.5-98.4,452.5-98.4z"/>
	<path class="st3" d="M102.7-226.4L102.7-226.4z"/>
	<path class="st2" d="M469-145.5c-0.1-0.1-0.1-0.3-0.2-0.4C468.9-145.8,469-145.6,469-145.5z"/>
	<path class="st4" d="M452.5-98.4L452.5-98.4L452.5-98.4C452.5-98.4,452.5-98.4,452.5-98.4z M42.7-251.9c0,0-0.1,0-0.1,0.1
		c0.1,0.1,0.2,0.1,0.3,0.2C42.9-251.8,42.8-251.9,42.7-251.9z M451-97C451-97,451.1-97,451-97L451-97L451-97z"/>
	<path class="st5" d="M210.4-93.3c-0.2-0.1-0.5-0.2-0.8-0.3C209.8-93.5,210.1-93.4,210.4-93.3z M203.9-95.2c1,0.2,2,0.5,3,0.8
		c-1.2-0.4-2.5-0.8-3.9-1.3C203.3-95.5,203.6-95.4,203.9-95.2z M168.5-108.1c0.1,0,0.2-0.1,0.2-0.1c-0.3-0.1-0.5-0.2-0.7-0.3
		C168.2-108.4,168.4-108.3,168.5-108.1z M168.1-108.5c0,0-0.1,0-0.1-0.1C168-108.5,168-108.5,168.1-108.5z"/>
	<path class="st5" d="M465-133.1c0.3-1.9,1-10.4-2-16.6c-1.2-2.5-2.6-2.7-6.1-2.2c-118.6,18.1-189.6,24.1-348.1-64.2
		c-22.3-12.4-35.5-36.7-43.4-60.2c2.8-0.9,1.1-3.4-0.2-4.6c-10.7-6.2-22.8,5.1-25.2,7.6c-2.4,2.5-6.6,15.2-3.8,21.3
		c1.4,2.8,5.2-0.8,6.8,0.3c12,6.5,18.9,19.2,25.3,30.7c0.1,0.1,0.2,0.1,0.1,0.3c9.9,16,1.9,8-1.8,23
		c20.8,57.6,88.9,86.9,143.9,104.4c0,0,0,0,0,0c71.8,20.2,187.9,33.5,242.1-5.1C459.3-109,464.1-120.4,465-133.1z M458.6-132.9
		c-75.6,51.9-175.4,40.8-256.2,7.2c-32.8-14.1-101.1-39.6-109.9-76.1c4.3-3.4,9.2-11.3,15.2-9.7c109.9,72.9,195.3,103.1,326.8,68.7
		c6.2-0.8,13.3-5.8,18.9-1.4C456.5-141.6,460.9-136.8,458.6-132.9z"/>
	<path class="st6" d="M86.3-155.2c-5.5-0.9,2.7-6,3-2.6C89.3-156.4,87.9-155.1,86.3-155.2z"/>
	<path class="st7" d="M452.5-98.4c-46.5,74.9-217.1,42.3-232,38.9c-72-16.2-164.8-58.8-154-138.2c27.7,61.3,88.7,86.5,145.2,104.7
		c0,0,0,0,0,0C283.4-72.6,392.6-63.2,452.5-98.4z"/>
	<path class="st3" d="M456.5-101.1c-0.1,0-0.1-0.1-0.1-0.1C456.4-101.7,456.9-101.4,456.5-101.1z"/>
	<path class="st3" d="M68.3-220.7c-0.1-0.1-0.2-0.2-0.1-0.3C68.3-221,68.3-220.9,68.3-220.7z"/>
	<path class="st8" d="M458.6-132.9C383-81,283.2-92.1,202.4-125.7c-32.8-14.1-101.1-39.6-109.9-76.1c4.3-3.4,9.2-11.3,15.2-9.7
		c109.9,72.9,195.3,103.1,326.8,68.7c6.2-0.8,13.3-5.8,18.9-1.4C456.5-141.7,460.9-136.8,458.6-132.9z"/>
	
		<image style="overflow:visible;enable-background:new    ;" width="1920" height="964" xlink:href="8D7796B638D12E07.png"  transform="matrix(0.2337 0 0 0.2337 689.7042 -283.9644)">
	</image>
	<g id="ZL9CBX_00000090288477573126854640000014373006057961348502_">
		
			<image style="overflow:visible;enable-background:new    ;" width="284" height="175" id="ZL9CBX_00000031205734339295675220000008885187894599098501_" xlink:href="8D7796B638D12E05.jpg"  transform="matrix(1.7086 0 0 1.7086 693.7407 -37.9493)">
		</image>
	</g>
	<g id="hM31z5_00000073711662445738428380000017080038085073732741_">
		
			<image style="overflow:visible;enable-background:new    ;" width="1303" height="868" id="hM31z5_00000163052751501012524820000011804014340810078369_" xlink:href="8D7796B638D12E03.jpg"  transform="matrix(0.4081 0 0 0.4081 670.4954 281.7765)">
		</image>
	</g>
</g>
<g id="Calque_2_00000075131812765564200830000016386635831135601557_" class="st9">
	<path class="st10" d="M169.5-109.7c-5.9,4.5-4.5,0-9.4-2.3c-4.1-1.4-6.1,2.4-11.2-1c-1.2-1,3.7-10.5,5.4-7
		C158.5-115.4,164.2-112.6,169.5-109.7z"/>
	<path class="st10" d="M144.1-122.6c-1.5,0.3-14,3.7-12.4,0.7C132.6-129.6,141.1-127.8,144.1-122.6z"/>
	<path class="st10" d="M437.4-99.8c0.1,2.3-2.8,4.2-3.7,1.3C432.5-100.9,438-104.9,437.4-99.8z"/>
	<path class="st10" d="M438.4-110.7c0,0.7-0.2,1.3-0.9,1.4C432.4-108.8,438.3-116.9,438.4-110.7z"/>
	<path class="st10" d="M423.2-103.7c-0.5,2.9-3.1,2.8-3.6,0.2C419.7-103.9,423.5-105.5,423.2-103.7z"/>
	<path class="st10" d="M212.2-158.5c-0.1,1.1-1.1,2.8-2.3,1.8C207.5-158.3,212.4-162.2,212.2-158.5z"/>
	<path class="st10" d="M218-155.1c-2-0.4-2.2-3.4,0.2-2.9c1,0.1,0.2,1.1,0.6,1.5C218.5-155.9,219-155.1,218-155.1z"/>
	<path class="st10" d="M378.3-130.4c-0.8,0.1-1.5-0.1-1.6-1c0.1-0.6-0.5-1.4,0.4-1.6C378.3-133.5,380.1-130.8,378.3-130.4z"/>
	<path class="st10" d="M80-157c-5.5-0.9,2.7-6,2.9-2.6C83-158.2,81.6-156.9,80-157z"/>
	<path class="st11" d="M72-245.6c-11.2-4.7-28.7-7.5-33.4-5.1c-4.7,2.4-5.4-12.6-1.5-18c2.8-3.9,5.7-7.2,10.1-10.2
		c5.7-3.9,13.5-7.7,19.4,0.7c1.2,1.7-6.3,3.7-7.2,6.2C54.8-264.5,67.9-251.3,72-245.6z"/>
</g>
<g id="Calque_4_00000010270257938535521040000001611732620915669656_">
	<path class="st12" d="M464.8-155c-3.4-5.4-11.7-2.4-17-1.1c-91.6,23.3-188.2,14.4-272.7-30.7c-43.7-20.7-95.3-38.4-105.2-89.6
		c0-7.3-5.8-8.8-8.8-9c-10.7,0.8-22.6,4.6-26.6,15.7c-11.9,26.8,13.5,13,32.4,57.6C6.2-57,419.4,21.2,464.4-109.3
		C468.9-122.4,474.6-138,464.8-155z M452.2-97.9c-42.8,60.7-159.6,52.9-236.6,37.2c-64.2-15.4-157.8-58.4-149.2-137
		c3.7-15.1,11.6-7,1.8-23c-0.1-0.1-0.2-0.2-0.1-0.3c-6.4-11.6-15.1-26.7-25.6-30.8c-3.1-1-5.1,2.4-6.5-0.1
		c-2.8-6.2,2.7-19.5,5.7-22.3c3-2.8,12.6-11,22.4-6.6c1.6,0.7,2.2,2.2,1.1,4.6c-1.1,2.4,10.9,41.9,43.4,60.2
		c65.7,38,138.1,73.5,215.2,76.8c45,1.5,90.6-0.4,133.7-12.7c6.6-1.9,7.9,12.4,7.4,18.9C463.4-116.2,454.1-100.5,452.2-97.9z"/>
</g>
</svg>
