<svg width="29" height="30" viewBox="0 0 29 30" fill="none" xmlns="http://www.w3.org/2000/svg">
<path d="M23.6748 29.2861C20.8227 29.2861 18.5107 26.974 18.5107 24.122C18.5107 24.0016 18.5204 23.8836 18.529 23.7653L8.9894 19.288C8.06238 20.1737 6.809 20.7207 5.42575 20.7207C2.5737 20.7206 0.261597 18.4085 0.261597 15.5565C0.261597 12.7045 2.5737 10.3924 5.42569 10.3924C6.32538 10.3924 7.17116 10.6236 7.9076 11.0279L12.0368 7.5486C11.8559 7.02226 11.7534 6.46018 11.7534 5.87289C11.7534 3.02084 14.0655 0.708797 16.9175 0.708797C19.7696 0.708797 22.0816 3.0209 22.0816 5.87289C22.0816 8.72489 19.7696 11.037 16.9175 11.037C16.0179 11.037 15.1721 10.8058 14.4355 10.4015L10.3064 13.8808C10.4873 14.4069 10.5898 14.9692 10.5898 15.5565C10.5898 15.6769 10.5801 15.7946 10.5716 15.9132L20.1111 20.3906C21.0381 19.5048 22.2915 18.9579 23.6747 18.9579C26.5267 18.9579 28.8388 21.27 28.8388 24.122C28.8388 26.974 26.5268 29.2861 23.6748 29.2861Z" fill="#3652E0"/>
</svg>
